<?xml version="1.0" standalone="no"?>
<!DOCTYPE svg PUBLIC "-//W3C//DTD SVG 20010904//EN"
 "http://www.w3.org/TR/2001/REC-SVG-20010904/DTD/svg10.dtd">
<svg version="1.0" xmlns="http://www.w3.org/2000/svg"
 width="742.000000pt" height="336.000000pt" viewBox="0 0 742.000000 336.000000"
 preserveAspectRatio="xMidYMid meet">

<g transform="translate(0.000000,336.000000) scale(0.100000,-0.100000)"
fill="#000000" stroke="none">
<path d="M2776 2095 c-11 -8 -17 -17 -14 -20 2 -3 13 4 23 15 21 23 18 25 -9
5z"/>
<path d="M2610 1882 c0 -34 -68 -289 -112 -417 -12 -36 -22 -99 -25 -157 l-6
-98 42 -19 c52 -23 108 -14 161 27 19 15 52 39 73 53 32 22 85 92 56 73 -7 -4
-9 1 -7 12 2 11 10 18 17 16 7 -1 10 2 6 8 -7 11 -55 -16 -55 -31 0 -5 -16
-24 -35 -41 -20 -17 -34 -33 -31 -35 2 -3 -28 -22 -67 -43 -63 -33 -74 -36
-87 -24 -27 26 -8 202 29 272 6 12 10 25 10 29 -1 4 2 19 8 33 6 14 13 41 16
60 4 19 15 62 26 95 11 33 25 85 32 115 6 30 14 60 16 66 2 6 -12 15 -32 21
-34 11 -35 10 -35 -15z"/>
<path d="M6383 1760 c-32 -13 -29 -17 7 -12 23 3 30 0 30 -12 0 -9 3 -16 8
-16 4 0 6 -22 5 -50 -2 -46 -65 -211 -95 -248 -6 -7 -18 -25 -27 -41 -40 -72
-97 -151 -108 -151 -7 0 -13 -4 -13 -9 0 -15 -32 -22 -45 -11 -9 8 -15 7 -19
-2 -3 -7 -3 -3 0 10 3 12 2 22 -3 22 -4 0 -8 11 -8 25 0 14 2 25 5 25 3 0 7
15 8 33 1 17 11 59 21 92 11 33 22 80 25 103 4 24 13 50 21 58 8 8 19 33 25
54 6 22 15 42 20 45 11 7 14 45 4 45 -19 0 -48 -27 -60 -56 -8 -19 -18 -34
-23 -34 -6 0 -13 -9 -16 -21 -4 -11 -20 -34 -36 -50 -16 -17 -27 -34 -24 -40
4 -5 1 -9 -5 -9 -6 0 -8 -5 -4 -11 4 -7 9 -7 13 -2 3 6 17 16 30 23 21 11 23
10 17 -5 -3 -9 -9 -34 -12 -56 -4 -21 -11 -39 -16 -39 -6 0 -8 -11 -6 -25 3
-14 2 -25 -3 -25 -11 0 -8 -130 4 -137 5 -3 3 -9 -4 -14 -22 -13 35 -32 74
-25 45 8 139 103 189 191 82 141 116 249 103 326 -9 52 -35 68 -82 49z"/>
<path d="M6041 1714 c0 -11 3 -14 6 -6 3 7 2 16 -1 19 -3 4 -6 -2 -5 -13z"/>
<path d="M6045 1460 c-3 -6 1 -7 9 -4 18 7 21 14 7 14 -6 0 -13 -4 -16 -10z"/>
<path d="M2839 1433 c-13 -16 -12 -17 4 -4 9 7 17 15 17 17 0 8 -8 3 -21 -13z"/>
</g>
</svg>
